<svg width="115" height="147" viewBox="0 0 115 147" fill="none" xmlns="http://www.w3.org/2000/svg">
<g clip-path="url(#clip0_833_5065)">
<g clip-path="url(#clip1_833_5065)">
<path d="M114.922 117.921H1.07812V125.64C1.07812 127.998 3.01865 129.928 5.39039 129.928H110.61C112.981 129.928 114.922 127.998 114.922 125.64V117.921Z" fill="#8300B3"/>
<path d="M109.963 117.921H6.03711V66.6747C6.03711 64.3161 7.97763 62.3864 10.3494 62.3864H105.65C108.022 62.3864 109.963 64.3161 109.963 66.6747V117.921Z" fill="#FF9A66"/>
<path d="M78.0528 66.6748V43.9465C78.0528 33.0112 69.2127 24.0056 58.0008 24.0056C47.0045 24.0056 37.9488 32.7967 37.9488 43.9465V66.6748C33.2053 66.6748 29.3242 70.5343 29.3242 75.2515V76.3236C29.3242 81.0407 33.2053 84.9003 37.9488 84.9003H77.8372C82.5807 84.9003 86.4618 81.0407 86.4618 76.3236V75.2515C86.4618 70.5343 82.7963 66.6748 78.0528 66.6748Z" fill="#8300B3"/>
<path d="M87.323 77.1812L66.4085 72.464V57.2404H49.3751V72.464L28.4606 77.1812C24.5795 78.2533 21.9922 81.4696 21.9922 84.9002V117.921H93.7914V84.9002C94.007 81.2551 91.2041 78.0389 87.323 77.1812Z" fill="#DCACF8"/>
<path d="M49.5904 117.921H66.4082L78.0514 75.037L66.6238 72.464V65.8171L63.8209 57.2404H52.1777L49.3748 65.8171V72.464L37.9473 75.037L49.5904 117.921Z" fill="#F6F6F6"/>
<path d="M66.4085 57.2404V72.464L57.9995 80.6119L49.375 72.464V57.2404H66.4085Z" fill="#E2BCB0"/>
<path d="M57.9991 37.0851C57.9991 37.0851 52.8244 41.3734 41.8281 40.3013V51.8799C41.8281 60.0278 47.6497 67.1036 55.6274 68.3901C65.5456 69.891 74.1701 62.172 74.1701 52.5232V40.5158C62.9582 41.3734 57.9991 37.0851 57.9991 37.0851Z" fill="#E2BCB0"/>
<path d="M81.2852 42.2311H74.1699V52.952H81.2852V42.2311Z" fill="#87C5FB"/>
<path d="M38.5939 52.952H41.8281V42.2311H34.7129V49.0924C34.7129 51.2366 36.4378 52.952 38.5939 52.952Z" fill="#87C5FB"/>
<path d="M65.546 60.8855H58.4308C57.3527 60.8855 56.4902 60.0278 56.4902 58.9557V58.3125C56.4902 57.2404 57.3527 56.3827 58.4308 56.3827H63.6055C64.6835 56.3827 65.546 57.2404 65.546 58.3125V60.8855Z" fill="#87C5FB"/>
<path d="M66.4097 72.464L66.8409 77.61C67.0565 80.3974 64.4692 82.5416 61.6662 81.684L57.7852 80.3974L66.4097 72.464Z" fill="#8300B3"/>
<path d="M49.3755 72.464L48.9442 77.61C48.7286 80.3974 51.316 82.5416 54.119 81.684L58 80.3974L49.3755 72.464Z" fill="#8300B3"/>
<path d="M57.9991 93.0481C59.6662 93.0481 61.0176 91.7042 61.0176 90.0463C61.0176 88.3884 59.6662 87.0444 57.9991 87.0444C56.3319 87.0444 54.9805 88.3884 54.9805 90.0463C54.9805 91.7042 56.3319 93.0481 57.9991 93.0481Z" fill="#8300B3"/>
<path d="M57.9991 105.27C59.6662 105.27 61.0176 103.926 61.0176 102.268C61.0176 100.61 59.6662 99.2662 57.9991 99.2662C56.3319 99.2662 54.9805 100.61 54.9805 102.268C54.9805 103.926 56.3319 105.27 57.9991 105.27Z" fill="#8300B3"/>
<path d="M114.922 117.921H1.07812V125.64C1.07812 127.998 3.01865 129.928 5.39039 129.928H110.61C112.981 129.928 114.922 127.998 114.922 125.64V117.921Z" stroke="#2E003F" stroke-width="1.5" stroke-miterlimit="10" stroke-linecap="round" stroke-linejoin="round"/>
<path d="M78.052 62.3864H106.082C108.238 62.3864 110.178 64.1018 110.178 66.4604V117.921H6.03711V66.2459C6.03711 64.1018 7.76202 62.172 10.1338 62.172H38.1635" stroke="#2E003F" stroke-width="1.5" stroke-miterlimit="10" stroke-linecap="round" stroke-linejoin="round"/>
<path d="M34.7129 42.2311V23.1479C34.7129 19.2884 37.9471 16.0721 41.8281 16.0721H74.1701C78.0512 16.0721 81.2854 19.2884 81.2854 23.1479V42.0167" stroke="#2E003F" stroke-width="1.5" stroke-miterlimit="10" stroke-linecap="round" stroke-linejoin="round"/>
<path d="M49.3751 72.464L28.4606 77.1812C24.5795 78.2533 21.9922 81.4695 21.9922 84.9002V117.921H93.7914V84.9002C93.7914 81.2551 91.2041 78.0389 87.323 77.1812L66.4085 72.464" stroke="#2E003F" stroke-width="1.5" stroke-miterlimit="10" stroke-linecap="round" stroke-linejoin="round"/>
<path d="M37.9473 75.037L49.5904 117.921H66.4082L78.0514 75.037" stroke="#2E003F" stroke-width="1.5" stroke-miterlimit="10" stroke-linecap="round" stroke-linejoin="round"/>
<path d="M57.9991 37.0851C57.9991 37.0851 52.8244 41.3734 41.8281 40.3013V51.8799C41.8281 60.0278 47.6497 67.1036 55.6274 68.3901C65.5456 69.891 74.1701 62.172 74.1701 52.5232V40.5158C62.9582 41.3734 57.9991 37.0851 57.9991 37.0851Z" stroke="#2E003F" stroke-width="1.5" stroke-miterlimit="10" stroke-linecap="round" stroke-linejoin="round"/>
<path d="M55.6278 68.3901C53.256 68.1757 51.3155 67.318 49.375 66.0315V72.464L57.9995 80.6119L66.6241 72.464V66.0315C63.3899 67.9613 59.7244 68.8189 55.6278 68.3901Z" stroke="#2E003F" stroke-width="1.5" stroke-miterlimit="10" stroke-linecap="round" stroke-linejoin="round"/>
<path d="M66.4097 72.464L66.8409 77.61C67.0565 80.3974 64.4692 82.5416 61.6662 81.684L57.7852 80.3974L66.4097 72.464Z" stroke="#2E003F" stroke-width="1.5" stroke-miterlimit="10" stroke-linecap="round" stroke-linejoin="round"/>
<path d="M49.3755 72.464L48.9442 77.61C48.7286 80.3974 51.316 82.5416 54.119 81.684L58 80.3974L49.3755 72.464Z" stroke="#2E003F" stroke-width="1.5" stroke-miterlimit="10" stroke-linecap="round" stroke-linejoin="round"/>
<path d="M81.2852 42.2311H74.1699V52.952H81.2852V42.2311Z" stroke="#2E003F" stroke-width="1.5" stroke-miterlimit="10" stroke-linecap="round" stroke-linejoin="round"/>
<path d="M38.5939 52.952H41.8281V42.2311H34.7129V49.0924C34.7129 51.2366 36.4378 52.952 38.5939 52.952Z" stroke="#2E003F" stroke-width="1.5" stroke-miterlimit="10" stroke-linecap="round" stroke-linejoin="round"/>
<path d="M86.4626 76.9668C86.4626 76.7524 86.4626 76.7524 86.4626 76.538V75.4659C86.4626 70.7487 82.5816 66.8892 77.8381 66.8892V52.952H73.957" stroke="#2E003F" stroke-width="1.5" stroke-miterlimit="10" stroke-linecap="round" stroke-linejoin="round"/>
<path d="M41.8298 52.952H38.1644H37.9488V66.8892C33.2053 66.8892 29.3242 70.7487 29.3242 75.4659V76.538C29.3242 76.7524 29.3242 76.7524 29.3242 76.9668" stroke="#2E003F" stroke-width="1.5" stroke-miterlimit="10" stroke-linecap="round" stroke-linejoin="round"/>
<path d="M74.1715 42.2311H77.8369C76.9745 32.1535 68.3499 24.0056 58.0005 24.0056C47.651 24.0056 39.0265 31.9391 38.1641 42.2311H41.8295" stroke="#2E003F" stroke-width="1.5" stroke-miterlimit="10" stroke-linecap="round" stroke-linejoin="round"/>
<path d="M65.546 60.8855H58.4308C57.3527 60.8855 56.4902 60.0278 56.4902 58.9557V58.3125C56.4902 57.2404 57.3527 56.3827 58.4308 56.3827H63.6055C64.6835 56.3827 65.546 57.2404 65.546 58.3125V60.8855Z" stroke="#2E003F" stroke-width="1.5" stroke-miterlimit="10" stroke-linecap="round" stroke-linejoin="round"/>
<path d="M81.2867 52.952V57.2404C81.2867 59.1701 79.7774 60.8855 77.6212 60.8855H65.5469" stroke="#2E003F" stroke-width="1.5" stroke-miterlimit="10" stroke-linecap="round" stroke-linejoin="round"/>
<path d="M58.001 93.0481C59.6681 93.0481 61.0196 91.7042 61.0196 90.0463C61.0196 88.3884 59.6681 87.0444 58.001 87.0444C56.3339 87.0444 54.9824 88.3884 54.9824 90.0463C54.9824 91.7042 56.3339 93.0481 58.001 93.0481Z" stroke="#2E003F" stroke-width="1.5" stroke-miterlimit="10" stroke-linecap="round" stroke-linejoin="round"/>
<path d="M58.001 105.27C59.6681 105.27 61.0196 103.926 61.0196 102.268C61.0196 100.61 59.6681 99.2662 58.001 99.2662C56.3339 99.2662 54.9824 100.61 54.9824 102.268C54.9824 103.926 56.3339 105.27 58.001 105.27Z" stroke="#2E003F" stroke-width="1.5" stroke-miterlimit="10" stroke-linecap="round" stroke-linejoin="round"/>
<path d="M32.127 105.913V105.27" stroke="#2E003F" stroke-width="1.5" stroke-miterlimit="10" stroke-linecap="round" stroke-linejoin="round"/>
<path d="M32.127 117.921V109.344" stroke="#2E003F" stroke-width="1.5" stroke-miterlimit="10" stroke-linecap="round" stroke-linejoin="round"/>
<path d="M83.875 105.913V105.27" stroke="#2E003F" stroke-width="1.5" stroke-miterlimit="10" stroke-linecap="round" stroke-linejoin="round"/>
<path d="M83.875 117.921V109.344" stroke="#2E003F" stroke-width="1.5" stroke-miterlimit="10" stroke-linecap="round" stroke-linejoin="round"/>
</g>
</g>
<defs>
<clipPath id="clip0_833_5065">
<rect width="115" height="147" rx="4" fill="white"/>
</clipPath>
<clipPath id="clip1_833_5065">
<rect width="116" height="116" fill="white" transform="translate(0 15)"/>
</clipPath>
</defs>
</svg>
