<svg width="74" height="74" viewBox="0 0 74 74" fill="none" xmlns="http://www.w3.org/2000/svg">
<rect width="74" height="74" rx="4" fill="#EED7FF"/>
<path opacity="0.4" d="M52.9166 33.9752L51.2626 41.03C49.8449 47.1228 47.0432 49.587 41.7774 49.0806C40.9336 49.0131 40.0222 48.8612 39.0433 48.6249L36.2079 47.9498C29.1699 46.279 26.9927 42.8022 28.6467 35.7474L30.3007 28.6757C30.6383 27.2411 31.0433 25.9921 31.5496 24.9626C33.5243 20.8782 36.883 19.7812 42.5201 21.1145L45.3386 21.7728C52.4103 23.4268 54.5706 26.9204 52.9166 33.9752Z" fill="#6F33B5"/>
<path d="M41.7728 49.0873C40.7264 49.7961 39.4099 50.3868 37.8065 50.91L35.1399 51.7877C28.4395 53.948 24.9121 52.1421 22.7349 45.4417L20.5746 38.7751C18.4142 32.0747 20.2033 28.5304 26.9036 26.3701L29.5703 25.4924C30.2623 25.273 30.9205 25.0874 31.545 24.9692C31.0386 25.9988 30.6336 27.2477 30.296 28.6823L28.642 35.754C26.988 42.8088 29.1652 46.2856 36.2032 47.9565L39.0386 48.6316C40.0175 48.8679 40.9289 49.0198 41.7728 49.0873ZM45.8774 34.1C45.7761 34.1 45.6749 34.0831 45.5567 34.0662L37.3711 31.9903C37.0666 31.8899 36.8115 31.6776 36.6574 31.3964C36.5033 31.1151 36.4617 30.7859 36.541 30.4752C36.6203 30.1645 36.8146 29.8954 37.0845 29.7224C37.3545 29.5494 37.6801 29.4853 37.9956 29.5431L46.1812 31.619C46.4746 31.6982 46.7296 31.8806 46.8993 32.1327C47.0691 32.3847 47.1422 32.6896 47.1052 32.9912C47.0683 33.2929 46.9238 33.5711 46.6982 33.7748C46.4727 33.9784 46.1812 34.0939 45.8774 34.1Z" fill="#6F33B5"/>
<path d="M40.9374 39.7995C40.8361 39.7995 40.7348 39.7826 40.6167 39.7657L35.7053 38.5168C35.4008 38.4164 35.1457 38.2041 34.9916 37.9229C34.8376 37.6416 34.796 37.3124 34.8752 37.0017C34.9545 36.691 35.1488 36.4219 35.4188 36.2489C35.6888 36.0759 36.0144 36.0118 36.3298 36.0695L41.2412 37.3185C41.9163 37.4873 42.3213 38.1792 42.1526 38.8543C42.0175 39.4282 41.5112 39.7995 40.9374 39.7995Z" fill="#6F33B5"/>
</svg>
