<svg width="116" height="147" viewBox="0 0 116 147" fill="none" xmlns="http://www.w3.org/2000/svg">
<g clip-path="url(#clip0_833_5035)">
<g clip-path="url(#clip1_833_5035)">
<path fill-rule="evenodd" clip-rule="evenodd" d="M105.23 84.107L100.717 101.936L87.4016 115.928L68.2187 120.893H49.4872L30.3043 115.928L17.2148 101.936L12.7012 83.8813L12.9269 64.0214L17.4405 45.9669L30.53 33.1031L49.7128 28.3638H68.4444L87.6272 33.1031L100.265 46.1926L104.779 64.0214L105.23 84.107Z" fill="#F2F2F2"/>
<path d="M77.9222 82.9786H40.0078V101.936H77.9222V82.9786Z" fill="#DCACF8"/>
<path d="M77.9222 64.0214H40.0078V82.9786H77.9222V64.0214Z" fill="#8300B3"/>
<path d="M77.9222 45.0642H40.0078V64.0214H77.9222V45.0642Z" fill="#FF9A66"/>
<path fill-rule="evenodd" clip-rule="evenodd" d="M58.9653 16.6284C64.156 16.6284 68.4439 20.9164 68.4439 26.107C68.4439 31.2977 64.156 35.5856 58.9653 35.5856C53.7747 35.5856 49.4867 31.2977 49.4867 26.107C49.4867 20.9164 53.7747 16.6284 58.9653 16.6284ZM96.8797 26.107C102.07 26.107 106.358 30.395 106.358 35.5856C106.358 40.7763 102.07 45.0642 96.8797 45.0642C91.6891 45.0642 87.4011 40.7763 87.4011 35.5856C87.4011 30.395 91.6891 26.107 96.8797 26.107ZM21.0509 26.107C26.2416 26.107 30.5295 30.395 30.5295 35.5856C30.5295 40.7763 26.2416 45.0642 21.0509 45.0642C15.8603 45.0642 11.5723 40.7763 11.5723 35.5856C11.5723 30.395 15.8603 26.107 21.0509 26.107ZM106.358 64.0214C111.549 64.0214 115.837 68.3094 115.837 73.5C115.837 78.6907 111.549 82.9786 106.358 82.9786C101.168 82.9786 96.8797 78.6907 96.8797 73.5C96.8797 68.3094 101.168 64.0214 106.358 64.0214ZM11.5723 64.0214C16.763 64.0214 21.0509 68.3094 21.0509 73.5C21.0509 78.6907 16.763 82.9786 11.5723 82.9786C6.38169 82.9786 2.09375 78.6907 2.09375 73.5C2.09375 68.3094 6.38169 64.0214 11.5723 64.0214ZM96.8797 101.936C102.07 101.936 106.358 106.224 106.358 111.414C106.358 116.605 102.07 120.893 96.8797 120.893C91.6891 120.893 87.4011 116.605 87.4011 111.414C87.4011 106.224 91.6891 101.936 96.8797 101.936ZM21.0509 101.936C26.2416 101.936 30.5295 106.224 30.5295 111.414C30.5295 116.605 26.2416 120.893 21.0509 120.893C15.8603 120.893 11.5723 116.605 11.5723 111.414C11.5723 106.224 15.8603 101.936 21.0509 101.936ZM58.9653 111.414C64.156 111.414 68.4439 115.702 68.4439 120.893C68.4439 126.084 64.156 130.372 58.9653 130.372C53.7747 130.372 49.4867 126.084 49.4867 120.893C49.4867 115.702 53.7747 111.414 58.9653 111.414Z" fill="#4885ED"/>
<path d="M30.5312 33.1031L49.7141 28.3638" stroke="#2E003F" stroke-width="1.5" stroke-miterlimit="10" stroke-linecap="round" stroke-linejoin="round"/>
<path d="M30.3047 115.928L49.4876 120.893" stroke="#2E003F" stroke-width="1.5" stroke-miterlimit="10" stroke-linecap="round" stroke-linejoin="round"/>
<path d="M87.6262 33.1031L68.4434 28.3638" stroke="#2E003F" stroke-width="1.5" stroke-miterlimit="10" stroke-linecap="round" stroke-linejoin="round"/>
<path d="M87.4016 115.928L68.2188 120.893" stroke="#2E003F" stroke-width="1.5" stroke-miterlimit="10" stroke-linecap="round" stroke-linejoin="round"/>
<path d="M100.264 46.1926L104.777 64.0214" stroke="#2E003F" stroke-width="1.5" stroke-miterlimit="10" stroke-linecap="round" stroke-linejoin="round"/>
<path d="M17.4413 45.9669L15.4102 54.5428" stroke="#2E003F" stroke-width="1.5" stroke-miterlimit="10" stroke-linecap="round" stroke-linejoin="round"/>
<path d="M100.715 101.936L102.972 92.4572" stroke="#2E003F" stroke-width="1.5" stroke-miterlimit="10" stroke-linecap="round" stroke-linejoin="round"/>
<path d="M17.2148 101.936L12.7012 83.8813" stroke="#2E003F" stroke-width="1.5" stroke-miterlimit="10" stroke-linecap="round" stroke-linejoin="round"/>
<path d="M77.9222 82.9786H40.0078V101.936H77.9222V82.9786Z" stroke="#2E003F" stroke-width="1.5" stroke-miterlimit="10" stroke-linecap="round" stroke-linejoin="round"/>
<path d="M77.9222 64.0214H40.0078V82.9786H77.9222V64.0214Z" stroke="#2E003F" stroke-width="1.5" stroke-miterlimit="10" stroke-linecap="round" stroke-linejoin="round"/>
<path d="M77.9222 45.0642H40.0078V64.0214H77.9222V45.0642Z" stroke="#2E003F" stroke-width="1.5" stroke-miterlimit="10" stroke-linecap="round" stroke-linejoin="round"/>
<path d="M68.4434 54.5428H58.9648" stroke="#2E003F" stroke-width="1.5" stroke-miterlimit="10" stroke-linecap="round" stroke-linejoin="round"/>
<path d="M58.9653 16.6284C64.156 16.6284 68.4439 20.9164 68.4439 26.107C68.4439 31.2977 64.156 35.5856 58.9653 35.5856C53.7747 35.5856 49.4867 31.2977 49.4867 26.107C49.4867 20.9164 53.7747 16.6284 58.9653 16.6284ZM96.8797 26.107C102.07 26.107 106.358 30.395 106.358 35.5856C106.358 40.7763 102.07 45.0642 96.8797 45.0642C91.6891 45.0642 87.4011 40.7763 87.4011 35.5856C87.4011 30.395 91.6891 26.107 96.8797 26.107ZM21.0509 26.107C26.2416 26.107 30.5295 30.395 30.5295 35.5856C30.5295 40.7763 26.2416 45.0642 21.0509 45.0642C15.8603 45.0642 11.5723 40.7763 11.5723 35.5856C11.5723 30.395 15.8603 26.107 21.0509 26.107ZM106.358 64.0214C111.549 64.0214 115.837 68.3094 115.837 73.5C115.837 78.6907 111.549 82.9786 106.358 82.9786C101.168 82.9786 96.8797 78.6907 96.8797 73.5C96.8797 68.3094 101.168 64.0214 106.358 64.0214ZM11.5723 64.0214C16.763 64.0214 21.0509 68.3094 21.0509 73.5C21.0509 78.6907 16.763 82.9786 11.5723 82.9786C6.38169 82.9786 2.09375 78.6907 2.09375 73.5C2.09375 68.3094 6.38169 64.0214 11.5723 64.0214ZM96.8797 101.936C102.07 101.936 106.358 106.224 106.358 111.414C106.358 116.605 102.07 120.893 96.8797 120.893C91.6891 120.893 87.4011 116.605 87.4011 111.414C87.4011 106.224 91.6891 101.936 96.8797 101.936ZM21.0509 101.936C26.2416 101.936 30.5295 106.224 30.5295 111.414C30.5295 116.605 26.2416 120.893 21.0509 120.893C15.8603 120.893 11.5723 116.605 11.5723 111.414C11.5723 106.224 15.8603 101.936 21.0509 101.936ZM58.9653 111.414C64.156 111.414 68.4439 115.702 68.4439 120.893C68.4439 126.084 64.156 130.372 58.9653 130.372C53.7747 130.372 49.4867 126.084 49.4867 120.893C49.4867 115.702 53.7747 111.414 58.9653 111.414Z" stroke="#2E003F" stroke-width="1.5" stroke-miterlimit="10" stroke-linecap="round" stroke-linejoin="round"/>
</g>
</g>
<defs>
<clipPath id="clip0_833_5035">
<rect x="0.982422" width="115" height="147" rx="4" fill="white"/>
</clipPath>
<clipPath id="clip1_833_5035">
<rect width="116" height="116" fill="white" transform="translate(0.964844 15.5)"/>
</clipPath>
</defs>
</svg>
