<svg width="196" height="53" viewBox="0 0 196 53" fill="none" xmlns="http://www.w3.org/2000/svg">
<g clip-path="url(#clip0_298_4)">
<path d="M28.052 37.764C26.4126 37.9445 24.7732 37.764 23.1338 37.2223L40.803 26.389C40.803 26.0279 40.6208 25.6668 40.6208 25.3056V25.1251C40.4387 24.764 40.4387 24.4029 40.2565 24.2223V24.0418C40.0743 23.6806 40.0743 23.5001 39.8922 23.139V22.9584C39.71 22.5973 39.5279 22.4168 39.3457 22.0556C39.1636 21.8751 39.1636 21.6945 38.9814 21.514C38.7993 21.1529 38.2528 20.9723 37.7063 21.1529L37.342 21.514L33.1524 23.8612L18.2156 33.0695L14.2082 35.5973L13.6617 35.9584C13.2974 36.139 13.1152 36.6806 13.4796 37.0418C13.6617 37.2223 13.6617 37.4029 13.8439 37.5834C14.026 37.9445 14.2082 38.1251 14.5725 38.4862C14.5725 38.4862 14.5725 38.4862 14.7546 38.6668C14.9368 38.8473 15.3011 39.2084 15.4833 39.389C15.4833 39.389 15.4833 39.389 15.6654 39.5695C15.8476 39.7501 16.0297 39.9306 16.3941 40.1112C16.3941 40.1112 16.3941 40.1112 16.5762 40.2918C16.9405 40.4723 17.1227 40.6529 17.487 41.014C20.2193 43.0001 23.6803 44.0834 26.9591 44.0834C27.6877 44.0834 28.4164 44.0834 29.145 43.9029C34.7918 43.0001 39.5279 39.0279 41.5316 33.2501L35.7026 31.0834C34.4275 34.6945 31.513 37.2223 28.052 37.764Z" fill="#311547"/>
<path d="M28.4164 13.2084L31.6952 13.7501C32.4238 13.9307 33.1524 13.389 33.3346 12.6668L34.974 3.639L28.9628 2.55566L27.3234 11.5834C27.1413 12.3057 27.5056 13.0279 28.4164 13.2084Z" fill="#DCACF8"/>
<path d="M9.83643 22.5967L1.09294 20.9717L0 26.93L8.74349 28.555C9.47212 28.7356 10.2007 28.1939 10.3829 27.4717L10.9294 24.2217C11.1115 23.4995 10.5651 22.7772 9.83643 22.5967Z" fill="#DCACF8"/>
<path d="M16.7584 17.722L19.4907 15.9165C20.0372 15.5553 20.2193 14.6526 19.855 13.9303L10.3829 0.388672L5.28253 3.81923L14.7546 17.3609C15.119 17.9026 16.0297 18.0831 16.7584 17.722Z" fill="#DCACF8"/>
<path d="M51.368 8.875H45.539V46.25H51.368V8.875Z" fill="#311547"/>
<path d="M100.186 15.1943C92.8996 15.1943 87.4349 21.3332 87.4349 29.4582V43.361H93.2639V29.4582C93.2639 24.4027 95.9963 20.9721 100.186 20.9721C104.193 20.9721 106.926 24.5832 106.926 29.4582V43.361H112.755V29.4582C112.755 21.3332 107.472 15.1943 100.186 15.1943Z" fill="#311547"/>
<path d="M128.967 15.1943C120.952 15.1943 115.305 21.1527 115.305 29.4582C115.305 37.4027 121.134 43.7221 128.784 43.7221C131.881 43.7221 134.613 42.6388 136.981 40.6527V43.1804H142.81V29.2777C142.81 21.3332 136.981 15.1943 128.967 15.1943ZM128.967 37.9443C124.413 37.9443 121.134 34.3332 121.134 29.4582C121.134 25.3054 123.502 20.9721 128.967 20.9721C134.431 20.9721 136.799 25.3054 136.799 29.4582C136.981 34.3332 133.52 37.9443 128.967 37.9443Z" fill="#311547"/>
<path d="M156.472 20.7916C159.751 20.7916 161.755 22.236 161.937 24.9443L162.119 26.3888H167.948L167.766 24.5832C167.219 18.8054 163.03 15.1943 156.472 15.1943C150.461 15.1943 145.907 18.8054 145.907 23.3193C145.907 29.4582 151.736 30.9027 155.926 31.8054C159.933 32.7082 161.937 33.4304 161.937 35.236C161.937 36.6804 160.48 38.3054 157.383 38.3054C153.375 38.3054 151.19 37.0416 151.007 34.5138L150.825 33.0693H144.996L145.178 34.8749C145.725 40.4721 150.461 43.7221 157.565 43.7221C163.576 43.7221 167.948 40.111 167.948 35.236C167.948 28.9166 162.119 27.6527 157.929 26.5693C153.922 25.6666 152.1 24.9443 152.1 23.1388C151.918 22.236 153.74 20.7916 156.472 20.7916Z" fill="#311547"/>
<path d="M195.818 50.7631C195.636 45.7076 191.993 42.4576 186.71 42.4576H178.331C176.145 42.4576 176.145 41.1937 176.145 40.652C176.145 40.1104 176.509 39.3881 177.056 39.027C178.877 40.1104 180.881 40.652 183.067 40.652C190.171 40.652 195.818 34.6937 195.818 27.2909V15.7354H189.989V27.1104C189.989 31.6242 187.074 34.8742 183.067 34.8742C179.242 34.8742 176.145 31.4437 176.145 27.1104V15.7354H170.316V27.1104C170.316 29.9992 171.227 32.8881 172.866 35.2354C171.227 36.6798 170.134 38.8465 170.134 41.0131C170.134 45.1659 173.231 48.0548 177.602 48.0548H186.346C187.985 48.0548 189.807 48.777 189.807 50.7631V52.3881H195.636L195.818 50.7631Z" fill="#311547"/>
<path d="M71.4052 37.7635C69.7658 37.9441 67.7621 37.7635 66.1227 37.0413L83.974 26.2079C82.3346 18.2635 74.5019 13.0274 66.487 14.6524C62.6617 15.3746 59.2007 17.7218 57.0149 20.9718C54.829 24.2218 54.1004 28.1941 54.829 31.9857C56.4684 39.5691 63.3903 43.7218 69.948 43.7218C70.6766 43.7218 71.4052 43.7218 72.1338 43.5413C77.7807 42.6385 82.5167 38.6663 84.5204 32.8885L79.0558 31.0829C77.7807 34.6941 74.8662 37.2218 71.4052 37.7635ZM60.8402 30.9024C60.2937 28.7357 60.8401 26.3885 62.1152 24.4024C63.3903 22.4163 65.3941 21.1524 67.7621 20.6107C71.2231 19.8885 74.5019 21.3329 76.5056 23.8607L61.5688 32.8885C61.2045 32.3468 61.0223 31.6246 60.8402 30.9024Z" fill="#311547"/>
</g>
<defs>
<clipPath id="clip0_298_4">
<rect width="196" height="52" fill="white" transform="translate(0 0.388672)"/>
</clipPath>
</defs>
</svg>
