<svg width="132" height="37" viewBox="0 0 132 37" fill="none" xmlns="http://www.w3.org/2000/svg">
<g id="Frame" clip-path="url(#clip0_4216_2784)">
<g id="Group">
<path id="Vector" d="M19.0958 26.2389C18.0302 26.4131 16.907 26.2679 15.8414 25.8614L27.5918 18.4563C27.5342 18.2239 27.4766 17.9626 27.419 17.7303C27.419 17.7012 27.3902 17.6722 27.3902 17.6432C27.3326 17.4108 27.2462 17.2076 27.1886 16.9752C27.1886 16.9462 27.1598 16.8881 27.1598 16.8591C27.0734 16.6558 26.987 16.4235 26.9006 16.2202C26.8718 16.1912 26.8718 16.1621 26.843 16.1041C26.7566 15.9008 26.6414 15.6975 26.5262 15.4942C26.5262 15.4942 26.5262 15.4942 26.5262 15.4652C26.4686 15.349 26.411 15.2329 26.3246 15.1457C26.1518 14.8844 25.8062 14.7973 25.5182 14.9715L25.2302 15.1748L22.5806 16.8591L12.6158 23.1026L9.96622 24.7579L9.64942 24.9611C9.39022 25.1354 9.30382 25.4839 9.47662 25.7452C9.56302 25.8614 9.62062 25.9775 9.70702 26.0937C9.85102 26.297 9.99502 26.4712 10.139 26.6454C10.1678 26.6745 10.1966 26.7035 10.2254 26.7326C10.3694 26.9068 10.5422 27.081 10.6862 27.2262C10.715 27.2553 10.7438 27.2843 10.7726 27.3133C10.9454 27.4876 11.1182 27.6328 11.291 27.778C11.3198 27.807 11.3486 27.807 11.3774 27.8361C11.5502 27.9813 11.7518 28.1265 11.9534 28.2717C13.7966 29.6075 16.0718 30.3044 18.2318 30.3044C18.7502 30.3044 19.2398 30.2754 19.7294 30.1883C23.5022 29.6075 26.699 26.8197 28.0238 22.9284L24.2222 21.5925C23.3582 24.119 21.3998 25.8614 19.0958 26.2389Z" fill="white"/>
<path id="Vector_2" d="M19.2942 9.51212L21.4542 9.91867C21.9438 10.0058 22.4334 9.68635 22.5198 9.16364L23.643 3.00724L19.6686 2.28125L18.5454 8.43765C18.459 8.93132 18.7758 9.425 19.2942 9.51212Z" fill="#DCACF8"/>
<path id="Vector_3" d="M6.9702 15.9299L1.095 14.8264L0.375 18.8339L6.2502 19.9374C6.7398 20.0245 7.2294 19.7051 7.3158 19.1824L7.719 17.0044C7.8054 16.5107 7.4598 16.017 6.9702 15.9299Z" fill="#DCACF8"/>
<path id="Vector_4" d="M11.4924 12.5904L13.3068 11.3417C13.7388 11.0513 13.8252 10.4705 13.5372 10.0349L7.22997 0.829346L3.91797 3.12348L10.2252 12.329C10.5132 12.7646 11.0892 12.8808 11.4924 12.5904Z" fill="#DCACF8"/>
<path id="Vector_5" d="M34.5897 6.5791H30.7305V31.9888H34.5897V6.5791Z" fill="white"/>
<path id="Vector_6" d="M67.2499 10.9351C62.4115 10.9351 58.7539 15.1168 58.7539 20.6633V30.0431H62.6707V20.6343C62.6707 17.2367 64.5427 14.8844 67.2499 14.8844C69.8707 14.8844 71.7715 17.2947 71.7715 20.6343V30.0141H75.7171V20.6343C75.6883 15.0877 72.0595 10.9351 67.2499 10.9351Z" fill="white"/>
<path id="Vector_7" d="M86.488 10.9351C81.16 10.9351 77.3008 15.0296 77.3008 20.6633C77.3008 26.1228 81.2464 30.3916 86.2864 30.3916C88.3312 30.3916 90.232 29.6656 91.7584 28.3588V30.0431H95.704V20.6343C95.704 15.0006 91.816 10.9351 86.488 10.9351ZM86.488 26.3841C83.4928 26.3841 81.2464 23.9158 81.2464 20.6343C81.2464 17.8755 82.888 14.8844 86.488 14.8844C90.1168 14.8844 91.7584 17.7594 91.7584 20.6343C91.7584 23.9158 89.4832 26.3841 86.488 26.3841Z" fill="white"/>
<path id="Vector_8" d="M104.802 14.6231C107.02 14.6231 108.316 15.6104 108.46 17.4399L108.546 18.4563H112.463L112.377 17.2657C112.06 13.3453 109.18 10.9351 104.86 10.9351C100.857 10.9351 97.8616 13.3163 97.8616 16.5107C97.8616 20.6633 101.721 21.6216 104.543 22.2896C107.25 22.9575 108.518 23.3931 108.518 24.6418C108.518 25.6581 107.481 26.6745 105.522 26.6745C102.873 26.6745 101.433 25.8033 101.231 24.09L101.116 23.1317H97.1992L97.3432 24.3514C97.7464 28.1265 100.828 30.3916 105.551 30.3916C109.554 30.3916 112.463 27.9813 112.463 24.6998C112.463 20.4601 108.575 19.5308 105.724 18.8338C103.046 18.195 101.778 17.7594 101.778 16.5397C101.778 15.6104 103.017 14.6231 104.802 14.6231Z" fill="white"/>
<path id="Vector_9" d="M131.128 35.0381C131.041 31.6695 128.593 29.4044 125.051 29.4044H119.464C118.024 29.4044 118.024 28.5623 118.024 28.2138C118.024 27.8072 118.254 27.3716 118.571 27.0522C119.781 27.7491 121.163 28.0976 122.632 28.0976C127.413 28.0976 131.157 24.1192 131.157 19.0082V11.2546H127.211V19.0082C127.211 22.0283 125.253 24.2934 122.632 24.2934C120.011 24.2934 118.053 22.0283 118.053 19.0082V11.2546H114.136V19.0082C114.136 21.012 114.741 22.9866 115.864 24.5548C114.769 25.5131 114.078 26.9651 114.078 28.4751C114.078 31.292 116.123 33.2667 119.061 33.2667H124.878C125.973 33.2667 127.153 33.7313 127.182 35.0671L127.211 36.1416H131.157L131.128 35.0381Z" fill="white"/>
<path id="Vector_10" d="M48.0084 26.2098C46.8852 26.3841 45.6468 26.2098 44.5236 25.7452L56.5044 18.4272C55.41 13.0259 50.1684 9.51206 44.8116 10.6156C42.2196 11.1383 39.9732 12.6774 38.5044 14.9425C37.0356 17.1785 36.5172 19.8211 37.0356 22.4057C38.0724 27.6037 42.7956 30.3915 47.1444 30.3915C47.6628 30.3915 48.1524 30.3625 48.642 30.2754C52.4148 29.6946 55.6116 26.9068 56.9364 23.0155L53.1348 21.6797C52.2708 24.119 50.3124 25.8614 48.0084 26.2098ZM40.9524 21.5925C40.6356 20.0534 40.9524 18.4853 41.8452 17.1495C42.7092 15.8137 44.0628 14.8844 45.5892 14.565C47.8644 14.1003 50.082 15.0296 51.4068 16.772L41.4132 22.8993C41.2116 22.4928 41.0676 22.0572 40.9524 21.5925Z" fill="white"/>
<path id="Vector_11" d="M18.7496 26.2389C17.684 26.4131 16.5608 26.2679 15.4952 25.8614L27.2456 18.4563C27.188 18.2239 27.1304 17.9626 27.0728 17.7303C27.0728 17.7012 27.044 17.6722 27.044 17.6432C26.9864 17.4108 26.9 17.2076 26.8424 16.9752C26.8424 16.9462 26.8136 16.8881 26.8136 16.8591C26.7272 16.6558 26.6408 16.4235 26.5544 16.2202C26.5256 16.1912 26.5256 16.1621 26.4968 16.1041C26.4104 15.9008 26.2952 15.6975 26.18 15.4942C26.18 15.4942 26.18 15.4942 26.18 15.4652C26.1224 15.349 26.0648 15.2329 25.9784 15.1457C25.8056 14.8844 25.46 14.7973 25.172 14.9715L24.884 15.1748L22.1768 16.83L12.2408 23.1026L9.59122 24.7579L9.27442 24.9611C9.01522 25.1354 8.92882 25.4839 9.10162 25.7452C9.18802 25.8614 9.24562 25.9775 9.33202 26.0937C9.47602 26.297 9.62002 26.4712 9.76402 26.6454C9.79282 26.6745 9.82162 26.7035 9.85042 26.7326C9.99442 26.9068 10.1672 27.081 10.3112 27.2262C10.34 27.2553 10.3688 27.2843 10.3976 27.3133C10.5704 27.4876 10.7432 27.6328 10.916 27.778C10.9448 27.807 10.9736 27.807 11.0024 27.8361C11.1752 27.9813 11.3768 28.1265 11.5784 28.2717C13.4216 29.6075 15.6968 30.3044 17.8568 30.3044C18.3752 30.3044 18.8648 30.2754 19.3544 30.1883C23.1272 29.6075 26.324 26.8197 27.6488 22.9284L23.8472 21.5925C22.9832 24.119 21.0248 25.8614 18.7496 26.2389Z" fill="white"/>
<path id="Vector_12" d="M18.9231 9.51212L21.0831 9.91867C21.5727 10.0058 22.0623 9.68635 22.1487 9.16364L23.2719 3.00724L19.2975 2.28125L18.1743 8.43765C18.0879 8.93132 18.4047 9.425 18.9231 9.51212Z" fill="#DCACF8"/>
<path id="Vector_13" d="M6.5952 15.9299L0.72 14.8264L0 18.8339L5.8752 19.9374C6.3648 20.0245 6.8544 19.7051 6.9408 19.1824L7.344 17.0044C7.4304 16.5107 7.0848 16.017 6.5952 15.9299Z" fill="#DCACF8"/>
<path id="Vector_14" d="M11.1174 12.5904L12.9318 11.3417C13.3638 11.0513 13.4502 10.4705 13.1622 10.0349L6.88377 0.829346L3.54297 3.12348L9.85017 12.329C10.1382 12.7646 10.7142 12.8808 11.1174 12.5904Z" fill="#DCACF8"/>
<path id="Vector_15" d="M34.242 6.5791H30.3828V31.9888H34.242V6.5791Z" fill="white"/>
<path id="Vector_16" d="M66.8749 10.9351C62.0365 10.9351 58.3789 15.1168 58.3789 20.6633V30.0431H62.2957V20.6343C62.2957 17.2367 64.1677 14.8844 66.8749 14.8844C69.4957 14.8844 71.3965 17.2947 71.3965 20.6343V30.0141H75.3421V20.6343C75.3421 15.0877 71.6845 10.9351 66.8749 10.9351Z" fill="white"/>
<path id="Vector_17" d="M86.113 10.9351C80.785 10.9351 76.9258 15.0296 76.9258 20.6633C76.9258 26.1228 80.8714 30.3916 85.9114 30.3916C87.9562 30.3916 89.857 29.6656 91.3834 28.3588V30.0431H95.329V20.6343C95.329 15.0006 91.4698 10.9351 86.113 10.9351ZM86.113 26.3841C83.1178 26.3841 80.8714 23.9158 80.8714 20.6343C80.8714 17.8755 82.513 14.8844 86.113 14.8844C89.7418 14.8844 91.3834 17.7594 91.3834 20.6343C91.3834 23.9158 89.137 26.3841 86.113 26.3841Z" fill="white"/>
<path id="Vector_18" d="M104.459 14.6231C106.676 14.6231 107.972 15.6104 108.116 17.4399L108.203 18.4563H112.119L112.033 17.2657C111.716 13.3453 108.836 10.9351 104.516 10.9351C100.513 10.9351 97.5179 13.3163 97.5179 16.5107C97.5179 20.6633 101.377 21.6216 104.199 22.2896C106.907 22.9575 108.174 23.3931 108.174 24.6418C108.174 25.6581 107.137 26.6745 105.179 26.6745C102.529 26.6745 101.089 25.8033 100.887 24.09L100.772 23.1317H96.8555L96.9995 24.3514C97.4027 28.1265 100.484 30.3916 105.207 30.3916C109.211 30.3916 112.119 27.9813 112.119 24.6998C112.119 20.4601 108.231 19.5308 105.38 18.8338C102.702 18.195 101.435 17.7594 101.435 16.5397C101.406 15.6104 102.673 14.6231 104.459 14.6231Z" fill="white"/>
<path id="Vector_19" d="M130.753 35.0381C130.666 31.6695 128.218 29.4044 124.676 29.4044H119.089C117.649 29.4044 117.649 28.5623 117.649 28.2138C117.649 27.8072 117.879 27.3716 118.196 27.0522C119.406 27.7491 120.788 28.0976 122.257 28.0976C127.038 28.0976 130.782 24.1192 130.782 19.0082V11.2546H126.836V19.0082C126.836 22.0283 124.878 24.2934 122.257 24.2934C119.636 24.2934 117.678 22.0283 117.678 19.0082V11.2546H113.761V19.0082C113.761 21.012 114.366 22.9866 115.489 24.5548C114.394 25.5131 113.703 26.9651 113.703 28.4751C113.703 31.292 115.748 33.2667 118.686 33.2667H124.503C125.598 33.2667 126.778 33.7313 126.807 35.0671L126.836 36.1416H130.782L130.753 35.0381Z" fill="white"/>
<path id="Vector_20" d="M47.6334 26.2098C46.5102 26.3841 45.2718 26.2098 44.1486 25.7452L56.1294 18.4272C55.035 13.0259 49.7934 9.51206 44.4366 10.6156C41.8446 11.1383 39.5982 12.6774 38.1294 14.9425C36.6606 17.1785 36.1422 19.8211 36.6606 22.4057C37.6974 27.6037 42.4206 30.3915 46.7694 30.3915C47.2878 30.3915 47.7774 30.3625 48.267 30.2754C52.0398 29.6946 55.2366 26.9068 56.5614 23.0155L52.7598 21.6797C51.8958 24.119 49.9374 25.8614 47.6334 26.2098ZM40.6062 21.5925C40.2894 20.0534 40.6062 18.4853 41.499 17.1495C42.363 15.8137 43.7166 14.8844 45.243 14.565C47.5182 14.1003 49.7358 15.0296 51.0606 16.772L41.0382 22.8993C40.8366 22.4928 40.6926 22.0572 40.6062 21.5925Z" fill="white"/>
</g>
</g>
<defs>
<clipPath id="clip0_4216_2784">
<rect width="131.155" height="35.3412" fill="white" transform="translate(0 0.829346)"/>
</clipPath>
</defs>
</svg>
