<svg width="74" height="74" viewBox="0 0 74 74" fill="none" xmlns="http://www.w3.org/2000/svg">
<rect width="74" height="74" rx="4" fill="#EED7FF"/>
<path d="M41.6754 54.7516C41.4512 54.7504 41.2313 54.6898 41.0382 54.576C40.845 54.4622 40.6855 54.2993 40.5757 54.1038C40.466 53.9083 40.4099 53.6872 40.4134 53.463C40.4168 53.2389 40.4795 53.0196 40.5952 52.8276L42.3674 49.874C42.4527 49.7311 42.5653 49.6063 42.6989 49.5069C42.8324 49.4075 42.9843 49.3353 43.1457 49.2946C43.3071 49.2538 43.475 49.2453 43.6397 49.2694C43.8044 49.2935 43.9628 49.3499 44.1058 49.4352C44.2487 49.5205 44.3735 49.6332 44.4729 49.7667C44.5723 49.9003 44.6444 50.0521 44.6852 50.2135C44.7259 50.3749 44.7345 50.5428 44.7104 50.7075C44.6862 50.8723 44.6299 51.0306 44.5446 51.1736L44.0889 51.9331C48.7471 50.836 52.2407 46.6504 52.2407 41.6546C52.2407 40.9627 52.8146 40.3888 53.5065 40.3888C54.1985 40.3888 54.7724 40.9627 54.7724 41.6546C54.7555 48.8782 48.8821 54.7516 41.6754 54.7516ZM19.7346 32.8142C19.0426 32.8142 18.4688 32.2403 18.4688 31.5484C18.4688 24.3417 24.3421 18.4683 31.5489 18.4683C31.773 18.4695 31.9929 18.5301 32.1861 18.6439C32.3792 18.7577 32.5388 18.9206 32.6485 19.1161C32.7583 19.3116 32.8143 19.5327 32.8109 19.7568C32.8074 19.981 32.7447 20.2003 32.629 20.3923L30.8569 23.3459C30.5024 23.9366 29.7261 24.1391 29.1185 23.7678C28.976 23.6819 28.852 23.5687 28.7536 23.4346C28.6552 23.3005 28.5843 23.1482 28.5451 22.9866C28.5059 22.8249 28.4991 22.6571 28.5251 22.4929C28.551 22.3286 28.6093 22.1711 28.6965 22.0294L29.1522 21.2699C26.8341 21.8142 24.7678 23.1254 23.2882 24.991C21.8085 26.8566 21.0024 29.1672 21.0004 31.5484C21.0004 32.2403 20.4265 32.8142 19.7346 32.8142Z" fill="#6F33B5"/>
<path opacity="0.4" d="M41.3369 37.6747V42.6367C41.3369 46.7717 39.6829 48.4257 35.5479 48.4257H30.5859C26.4509 48.4257 24.7969 46.7717 24.7969 42.6367V37.6747C24.7969 33.5397 26.4509 31.8857 30.5859 31.8857H35.5479C39.6829 31.8857 41.3369 33.5397 41.3369 37.6747Z" fill="#6F33B5"/>
<path opacity="0.4" d="M42.6404 24.7974H37.6784C33.6109 24.7974 31.9569 26.4176 31.9062 30.4007H35.5518C40.5138 30.4007 42.8091 32.7129 42.8091 37.6581V41.3036C46.8091 41.253 48.4125 39.599 48.4125 35.5315V30.5864C48.4294 26.4514 46.7754 24.7974 42.6404 24.7974Z" fill="#6F33B5"/>
</svg>
