<svg width="74" height="74" viewBox="0 0 74 74" fill="none" xmlns="http://www.w3.org/2000/svg">
<rect width="74" height="74" rx="4" fill="#EED7FF"/>
<path opacity="0.4" d="M45.9442 29.4722C45.8266 29.4554 45.7073 29.4554 45.5897 29.4722C44.3292 29.431 43.1343 28.9004 42.2584 27.993C41.3825 27.0856 40.8945 25.8727 40.8978 24.6115C40.8978 21.928 43.075 19.7339 45.7754 19.7339C48.4589 19.7339 50.653 21.9111 50.653 24.6115C50.6494 25.8735 50.1568 27.085 49.2787 27.9914C48.4006 28.8978 47.2054 29.4286 45.9442 29.4722ZM51.4496 41.1684C49.5593 42.4342 46.9095 42.9068 44.4623 42.5861C45.1037 41.2021 45.4412 39.6663 45.4581 38.046C45.4581 36.3583 45.0868 34.7549 44.3779 33.3541C46.8758 33.0165 49.5256 33.4891 51.4327 34.7549C54.0994 36.5102 54.0994 39.3962 51.4496 41.1684ZM27.2236 29.4722C27.3417 29.4554 27.4599 29.4554 27.578 29.4722C28.8385 29.431 30.0334 28.9004 30.9093 27.993C31.7852 27.0856 32.2733 25.8727 32.27 24.6115C32.27 21.928 30.0928 19.7339 27.3923 19.7339C24.7088 19.7339 22.5147 21.9111 22.5147 24.6115C22.5183 25.8735 23.0109 27.085 23.889 27.9914C24.7671 28.8978 25.9623 29.4286 27.2236 29.4722ZM27.4143 38.046C27.4143 39.6832 27.7687 41.2359 28.4101 42.6367C26.0303 42.8899 23.5493 42.3836 21.7266 41.1853C19.0599 39.4131 19.0599 36.5271 21.7266 34.7549C23.5325 33.5397 26.081 33.0503 28.4776 33.3203C27.7856 34.738 27.4143 36.3414 27.4143 38.046Z" fill="#6F33B5"/>
<path d="M36.8146 43.1432C36.6688 43.1263 36.5215 43.1263 36.3757 43.1432C34.8751 43.0928 33.4529 42.4604 32.4102 41.38C31.3676 40.2995 30.7862 38.8557 30.7893 37.3542C30.7893 34.1475 33.3715 31.5483 36.5951 31.5483C39.8019 31.5483 42.401 34.1475 42.401 37.3542C42.401 40.4934 39.9369 43.042 36.8146 43.1432ZM31.3294 46.6369C28.7808 48.3415 28.7808 51.1432 31.3294 52.8309C34.2323 54.7719 38.9918 54.7719 41.8947 52.8309C44.4432 51.1263 44.4432 48.3246 41.8947 46.6369C39.0086 44.696 34.2492 44.696 31.3294 46.6369Z" fill="#6F33B5"/>
</svg>
