<svg width="74" height="74" viewBox="0 0 74 74" fill="none" xmlns="http://www.w3.org/2000/svg">
<rect width="74" height="74" rx="4" fill="#EED7FF"/>
<path opacity="0.4" d="M36.6119 45.0501V49.067C36.6119 52.2231 35.3461 53.4889 32.1731 53.4889H24.1563C21.0002 53.4889 19.7344 52.2231 19.7344 49.067V41.0501C19.7344 37.8771 21.0002 36.6113 24.1563 36.6113H28.1732V40.6113C28.1732 43.7843 29.439 45.0501 32.5951 45.0501H36.6119Z" fill="#6F33B5"/>
<path opacity="0.6" d="M45.0494 36.6114V40.6114C45.0494 43.7843 43.7836 45.0502 40.6106 45.0502H32.5938C29.4377 45.0502 28.1719 43.7843 28.1719 40.6114V32.5945C28.1719 29.4384 29.4377 28.1726 32.5938 28.1726H36.6107V32.1726C36.6107 35.3456 37.8765 36.6114 41.0326 36.6114H45.0494Z" fill="#6F33B5"/>
<path d="M53.4908 24.1558V32.1726C53.4908 35.3456 52.225 36.6114 49.052 36.6114H41.0352C37.8791 36.6114 36.6133 35.3456 36.6133 32.1726V24.1558C36.6133 20.9997 37.8791 19.7339 41.0352 19.7339H49.052C52.225 19.7339 53.4908 20.9997 53.4908 24.1558Z" fill="#6F33B5"/>
</svg>
