<svg width="74" height="74" viewBox="0 0 74 74" fill="none" xmlns="http://www.w3.org/2000/svg">
<rect width="74" height="74" rx="4" fill="#EED7FF"/>
<path d="M53.4898 26.4849V30.5693C53.4898 33.2359 51.8021 34.9237 49.1354 34.9237H43.3633V23.1263C43.3633 21.2529 44.8991 19.7339 46.7725 19.7339C48.6122 19.7508 50.3 20.4934 51.5151 21.7086C52.7303 22.9406 53.4898 24.6284 53.4898 26.4849Z" fill="#6F33B5"/>
<path opacity="0.4" d="M19.7344 28.1727V51.8012C19.7344 53.2021 21.3209 53.9953 22.4348 53.1514L25.3208 50.9911C25.9959 50.4848 26.9411 50.5523 27.5487 51.1599L30.3504 53.9784C31.0086 54.6367 32.0887 54.6367 32.747 53.9784L35.5824 51.143C36.1731 50.5523 37.1183 50.4848 37.7765 50.9911L40.6625 53.1514C41.7765 53.9784 43.3629 53.1852 43.3629 51.8012V23.1094C43.3629 21.2529 44.8819 19.7339 46.7385 19.7339H26.4854C21.4221 19.7339 19.7344 22.755 19.7344 26.4849V28.1727Z" fill="#6F33B5"/>
<path d="M36.6111 32.8139H26.4846C25.7926 32.8139 25.2188 32.24 25.2188 31.548C25.2188 30.8561 25.7926 30.2822 26.4846 30.2822H36.6111C37.3031 30.2822 37.8769 30.8561 37.8769 31.548C37.8769 32.24 37.3031 32.8139 36.6111 32.8139ZM35.3453 39.5649H27.7504C27.0584 39.5649 26.4846 38.991 26.4846 38.2991C26.4846 37.6071 27.0584 37.0332 27.7504 37.0332H35.3453C36.0373 37.0332 36.6111 37.6071 36.6111 38.2991C36.6111 38.991 36.0373 39.5649 35.3453 39.5649Z" fill="#6F33B5"/>
</svg>
