<svg width="115" height="147" viewBox="0 0 115 147" fill="none" xmlns="http://www.w3.org/2000/svg">
<g clip-path="url(#clip0_833_5020)">
<g clip-path="url(#clip1_833_5020)">
<path fill-rule="evenodd" clip-rule="evenodd" d="M95.8288 35.2585H20.207V110.88H95.8288V35.2585Z" fill="#DCACF8"/>
<path fill-rule="evenodd" clip-rule="evenodd" d="M43.7793 101.544C41.2119 101.544 39.1113 99.4437 39.1113 96.8763C39.1113 94.3089 41.2119 92.2083 43.7793 92.2083C46.3467 92.2083 48.4473 94.3089 48.4473 96.8763C48.6807 99.4437 46.5801 101.544 43.7793 101.544ZM72.2542 44.828C74.8216 44.828 76.9222 46.9286 76.9222 49.496C76.9222 52.0634 74.8216 54.164 72.2542 54.164C69.6868 54.164 67.5862 52.0634 67.5862 49.496C67.5862 46.9286 69.6868 44.828 72.2542 44.828Z" fill="#FF9A66"/>
<path d="M20.2062 73.0694H48.6811L67.5865 54.164M95.8279 73.0694H67.5865L48.6811 91.9749M29.7756 130.019V110.88H48.6811M48.6811 110.88V129.786M48.6811 110.88H67.5865M67.5865 110.88V129.786M67.5865 110.88H86.4919V129.786M29.7756 16.3531V35.2586H48.6811M48.6811 35.2586V16.3531M48.6811 35.2586H67.5865M67.5865 35.2586V16.3531M67.5865 35.2586H86.4919V16.3531M1.30078 44.828H20.2062V63.7334M20.2062 63.7334H1.30078M20.2062 63.7334V82.6389M20.2062 82.6389H1.30078M20.2062 82.6389V101.544H1.30078M114.967 44.828H95.8279V63.7334M95.8279 63.7334H114.733M95.8279 63.7334V82.6389M95.8279 82.6389H114.733M95.8279 82.6389V101.544H114.733M95.8279 35.2586H20.2062V110.88H95.8279V35.2586ZM72.2545 44.828C74.8219 44.828 76.9225 46.9286 76.9225 49.496C76.9225 52.0634 74.8219 54.164 72.2545 54.164C69.6871 54.164 67.5865 52.0634 67.5865 49.496C67.5865 46.9286 69.6871 44.828 72.2545 44.828ZM43.7797 101.544C41.2123 101.544 39.1116 99.4437 39.1116 96.8763C39.1116 94.3089 41.2123 92.2083 43.7797 92.2083C46.3471 92.2083 48.4477 94.3089 48.4477 96.8763C48.6811 99.4437 46.5805 101.544 43.7797 101.544Z" stroke="#2E003F" stroke-width="1.5" stroke-miterlimit="10" stroke-linecap="round" stroke-linejoin="round"/>
</g>
</g>
<defs>
<clipPath id="clip0_833_5020">
<rect width="115" height="147" rx="4" fill="white"/>
</clipPath>
<clipPath id="clip1_833_5020">
<rect width="116" height="116" fill="white" transform="translate(0.132812 15.1862)"/>
</clipPath>
</defs>
</svg>
