<svg width="74" height="74" viewBox="0 0 74 74" fill="none" xmlns="http://www.w3.org/2000/svg">
<rect width="74" height="74" rx="4" fill="#EED7FF"/>
<path d="M50.1138 48.8661H34.8058C34.0463 48.8661 33.4219 48.2417 33.4219 47.4822C33.4219 46.7227 34.0463 46.0982 34.8058 46.0982H50.1138C50.8733 46.0982 51.4977 46.7227 51.4977 47.4822C51.4977 48.2585 50.8733 48.8661 50.1138 48.8661ZM50.1138 38.2451H34.8058C34.0463 38.2451 33.4219 37.6206 33.4219 36.8611C33.4219 36.1016 34.0463 35.4772 34.8058 35.4772H50.1138C50.8733 35.4772 51.4977 36.1016 51.4977 36.8611C51.4977 37.6206 50.8733 38.2451 50.1138 38.2451ZM50.1138 27.6173H34.8058C34.0463 27.6173 33.4219 26.9928 33.4219 26.2333C33.4219 25.4738 34.0463 24.8494 34.8058 24.8494H50.1138C50.8733 24.8494 51.4977 25.4738 51.4977 26.2333C51.4977 26.9928 50.8733 27.6173 50.1138 27.6173Z" fill="#6F33B5"/>
<path opacity="0.4" d="M24.6468 29.9142C24.2755 29.9142 23.9211 29.7623 23.6679 29.5091L22.132 27.9733C21.8724 27.7137 21.7266 27.3615 21.7266 26.9944C21.7266 26.8126 21.7624 26.6326 21.8319 26.4646C21.9015 26.2966 22.0035 26.144 22.132 26.0155C22.2606 25.8869 22.4132 25.785 22.5812 25.7154C22.7491 25.6458 22.9291 25.61 23.1109 25.61C23.4781 25.61 23.8302 25.7559 24.0898 26.0155L24.6468 26.5724L28.2586 22.9606C28.5182 22.701 28.8703 22.5552 29.2375 22.5552C29.6046 22.5552 29.9568 22.701 30.2164 22.9606C30.476 23.2203 30.6219 23.5724 30.6219 23.9395C30.6219 24.3067 30.476 24.6588 30.2164 24.9184L25.6257 29.5091C25.3556 29.7623 25.0181 29.9142 24.6468 29.9142ZM24.6468 40.542C24.2924 40.542 23.9379 40.407 23.6679 40.1369L22.132 38.6011C21.8724 38.3415 21.7266 37.9893 21.7266 37.6222C21.7266 37.255 21.8724 36.9029 22.132 36.6433C22.3917 36.3837 22.7438 36.2378 23.1109 36.2378C23.4781 36.2378 23.8302 36.3837 24.0898 36.6433L24.6468 37.2002L28.2586 33.5884C28.5182 33.3288 28.8703 33.183 29.2375 33.183C29.6046 33.183 29.9568 33.3288 30.2164 33.5884C30.476 33.8481 30.6219 34.2002 30.6219 34.5673C30.6219 34.9345 30.476 35.2866 30.2164 35.5462L25.6257 40.1369C25.3556 40.407 25.0012 40.542 24.6468 40.542ZM24.6468 50.6685C24.2924 50.6685 23.9379 50.5335 23.6679 50.2635L22.132 48.7276C22.0035 48.5991 21.9015 48.4464 21.8319 48.2785C21.7624 48.1105 21.7266 47.9305 21.7266 47.7487C21.7266 47.5669 21.7624 47.3869 21.8319 47.2189C21.9015 47.051 22.0035 46.8984 22.132 46.7698C22.3917 46.5102 22.7438 46.3643 23.1109 46.3643C23.2927 46.3643 23.4727 46.4001 23.6407 46.4697C23.8087 46.5393 23.9613 46.6413 24.0898 46.7698L24.6468 47.3268L28.2586 43.715C28.5218 43.4735 28.8681 43.3429 29.2252 43.3506C29.5823 43.3583 29.9227 43.5035 30.1752 43.7561C30.4278 44.0087 30.5731 44.3491 30.5808 44.7062C30.5884 45.0633 30.4579 45.4096 30.2164 45.6728L25.6257 50.2635C25.3556 50.5335 25.0012 50.6685 24.6468 50.6685Z" fill="#6F33B5"/>
</svg>
